<svg xmlns="http://www.w3.org/2000/svg" viewBox="-12 -157 772.6 214" role="img" aria-label="SEOPlus!"><defs><linearGradient id="gWM" gradientUnits="userSpaceOnUse" x1="0" y1="-100" x2="0" y2="0"><stop offset="0" stop-color="#FB923C"/><stop offset="1" stop-color="#EA580C"/></linearGradient><linearGradient id="gArc" gradientUnits="userSpaceOnUse" x1="95" y1="30" x2="85" y2="95"><stop offset="0" stop-color="#FB923C"/><stop offset="1" stop-color="#EA580C"/></linearGradient><linearGradient id="gKnob" x1="0" y1="0" x2="1" y2="1"><stop offset="0" stop-color="#F97316"/><stop offset="1" stop-color="#C2410C"/></linearGradient></defs><style>.i{stroke:#F1F5F9}.if{fill:#F1F5F9}.a{stroke:url(#gWM)}.af{fill:url(#gWM)}.arc{stroke:url(#gArc)}.kb{fill:url(#gKnob)}.dg{stroke:#F1F5F9;opacity:.6}.tk{opacity:.45}</style><g transform="translate(0 -145) scale(1.58)"><line x1="26.77" y1="93.23" x2="21.11" y2="98.89" class="i" stroke-width="3.6"/><line x1="16.58" y1="42.01" x2="9.19" y2="38.95" class="i" stroke-width="3.6"/><line x1="60" y1="13" x2="60" y2="5" class="i" stroke-width="3.6"/><line x1="103.42" y1="42.01" x2="110.81" y2="38.95" class="i" stroke-width="3.6"/><line x1="93.23" y1="93.23" x2="98.89" y2="98.89" class="i" stroke-width="3.6"/><path class="i" d="M33.13 86.87A38 38 0 1 1 89.94 36.6" stroke-width="13" fill="none"/><path class="arc" d="M89.53 36.09A38 38 0 0 1 96.82 69.39" stroke-width="13" fill="none"/><path class="kb" fill-rule="evenodd" d="M84.73 74.24a10.5 10.5 0 1 0 21 0a10.5 10.5 0 1 0 -21 0ZM91.63 74.24a3.6 3.6 0 1 0 7.2 0a3.6 3.6 0 1 0 -7.2 0Z"/><rect class="if" x="45" y="54.5" width="30" height="11"/><rect class="if" x="54.5" y="45" width="11" height="30"/></g><g transform="translate(247 0)"><g transform="translate(0 0)"><path d="M57.14 -79.21A23.95 19.04 0 1 0 35.26 -52.43A25.76 21.46 0 1 1 11.73 -22.23" class="i" stroke-width="19" stroke-linecap="butt" fill="none"/></g><g transform="translate(78.52 0)"><path d="M9.5 -100V0" class="i" stroke-width="19" stroke-linecap="butt" fill="none"/><polygon class="if" points="0,-100 60,-100 41,-81 0,-81"/><polygon class="if" points="0,-59.5 51.6,-59.5 32.6,-40.5 0,-40.5"/><polygon class="if" points="0,-19 60,-19 41,0 0,0"/></g><g transform="translate(141.52 0)"><path d="M88.15 -29.49A42 42 0 1 1 72.5 -86.37" class="i" stroke-width="19" fill="none"/><path d="M72.18 -86.55A42 42 0 0 1 92.11 -39.29" class="a" stroke-width="19" fill="none"/><path class="af" fill-rule="evenodd" d="M79.04 -34.27a11.4 11.4 0 1 0 22.8 0a11.4 11.4 0 1 0 -22.8 0ZM86.64 -34.27a3.8 3.8 0 1 0 7.6 0a3.8 3.8 0 1 0 -7.6 0Z"/></g><g transform="translate(252.52 0)"><polygon class="af" points="0,-100 19,-100 19,-19 0,0"/><path d="M9.5 -90.5H29.5A19 19 0 0 1 29.5 -52.5H9.5" class="a" stroke-width="19" stroke-linecap="butt" fill="none"/></g><g transform="translate(317.52 0)"><polygon class="af" points="0,-81 19,-100 19,0 0,0"/></g><g transform="translate(344.52 0)"><polygon class="af" points="0,-53 19,-72 19,-36.5 0,-36.5"/><path d="M9.5 -39.5V-36.5A27 27 0 0 0 63.5 -36.5V-39.5" class="a" stroke-width="19" stroke-linecap="butt" fill="none"/><polygon class="af" points="54,-53 73,-72 73,0 54,0"/></g><g transform="translate(423.52 0)"><path d="M39.17 -55.11A14.92 12.46 0 1 0 25.54 -37.59A16.04 14.04 0 1 1 10.89 -17.83" class="a" stroke-width="19" stroke-linecap="butt" fill="none"/></g><g transform="translate(482.6 0)"><polygon class="af" points="0,-81 19,-100 19,-30 0,-30"/><polygon class="af" points="9.5,-23.75 21.28,-11.78 9.5,0 -2.28,-11.78"/></g></g></svg>
